PathFileType	4	(X/Y/Z)	s08c0103.trc
DataRate	CameraRate	NumFrames	NumMarkers	Units	OrigDataRate	OrigDataStartFrame	OrigNumFrames
200	200	4	50	mm	200	0	2000
Frame#	Time	racr			lacr			c7			jug			rlel			rdr			llel			ldr			s2			lic			ric			lasi			rasi			rpsi			lpsi			rgt			lgt			rth1			rth2			rth3			rth4			rlfc			rmfc			rsh1			rsh2			rsh3			rsh4			rlmal			rmmal			rcal			rtoe			rmt5			lth1			lth2			lth4			lth3			llfc			lmfc			llmal			lmmal			lcal			lmt5			lsh1			lsh2			lsh3			lsh4			ltoe			SBIKE			LBIKE			RBIKE			
		X1	Y1	Z1	X2	Y2	Z2	X3	Y3	Z3	X4	Y4	Z4	X5	Y5	Z5	X6	Y6	Z6	X7	Y7	Z7	X8	Y8	Z8	X9	Y9	Z9	X10	Y10	Z10	X11	Y11	Z11	X12	Y12	Z12	X13	Y13	Z13	X14	Y14	Z14	X15	Y15	Z15	X16	Y16	Z16	X17	Y17	Z17	X18	Y18	Z18	X19	Y19	Z19	X20	Y20	Z20	X21	Y21	Z21	X22	Y22	Z22	X23	Y23	Z23	X24	Y24	Z24	X25	Y25	Z25	X26	Y26	Z26	X27	Y27	Z27	X28	Y28	Z28	X29	Y29	Z29	X30	Y30	Z30	X31	Y31	Z31	X32	Y32	Z32	X33	Y33	Z33	X34	Y34	Z34	X35	Y35	Z35	X36	Y36	Z36	X37	Y37	Z37	X38	Y38	Z38	X39	Y39	Z39	X40	Y40	Z40	X41	Y41	Z41	X42	Y42	Z42	X43	Y43	Z43	X44	Y44	Z44	X45	Y45	Z45	X46	Y46	Z46	X47	Y47	Z47	X48	Y48	Z48	X49	Y49	Z49	X50	Y50	Z50	
0	0.0000	546.701009	1362.907443	-66.140886	542.263482	1375.169426	-416.201423	534.475404	1426.381165	-243.314860	509.378972	1272.055146	-232.565362	605.123308	1115.236440	5.363668	802.613989	890.999456	-71.548394	653.022207	1139.700872	-446.749200	814.536754	890.092796	-405.273200	-14.112981	1196.470745	-241.653474	157.969348	1163.685043	-380.964379	145.605241	1199.429503	-75.848980	205.794959	1118.391688	-366.287008	159.913151	1141.592436	-106.068059	17.429163	1238.887728	-191.363431	24.715103	1233.610635	-286.704289	60.069528	1109.833504	-28.830133	74.249701	1053.790093	-412.414737	203.597359	1024.151871	-25.812289	291.457207	1009.619685	-26.180319	358.000888	953.337872	-29.012279	305.376837	1041.791600	-40.404228	458.068061	885.541640	-50.398234	444.019559	875.911117	-158.192066	385.094555	778.009874	-23.110222	367.432655	691.839837	-44.133962	309.477620	628.026990	-53.111995	392.432600	686.160392	-79.061102	251.595027	524.482495	-66.439014	268.392864	548.917273	-152.011781	172.108285	490.306148	-110.072692	470.708129	504.314409	-106.399980	383.361942	466.742669	-39.865194	116.116638	921.993133	-423.427795	163.312814	848.309217	-417.287406	189.882224	860.565845	-435.072779	165.890855	759.490013	-414.284765	190.465131	634.455610	-387.138271	178.558672	611.917217	-286.968391	38.725522	241.627116	-395.971553	79.768543	274.003875	-323.941774	-28.457593	204.132393	-355.168593	183.741770	178.592150	-417.164388	168.348865	528.780861	-434.677676	130.142914	431.884016	-398.797478	81.433045	358.890571	-404.532586	148.494088	429.050210	-364.901344	259.993381	220.441278	-348.355292	-192.965939	918.163673	-236.833235	10.755313	80.145527	-425.154337	9.379020	80.289327	-26.817596	
1	0.0050	546.799490	1363.030117	-66.064029	542.359299	1375.170399	-416.108581	534.654965	1426.326475	-243.252955	509.566420	1272.041514	-232.435825	605.212727	1115.280504	5.394372	802.634055	891.050399	-71.558846	653.029055	1139.712599	-446.717124	814.579578	890.123756	-405.333422	-13.992621	1196.495123	-241.813547	158.146555	1163.567376	-381.087778	145.648077	1199.460767	-75.909434	205.851095	1118.226218	-366.341964	159.986659	1141.510814	-106.202540	17.549399	1238.918569	-191.555539	24.890907	1233.550879	-286.914560	60.090473	1109.897056	-28.960455	74.270849	1053.601949	-412.512285	203.533702	1023.976407	-25.865154	291.300979	1009.325381	-26.233746	357.754239	952.776322	-29.311174	305.331380	1041.409199	-40.491676	457.782779	884.919409	-50.535346	442.931000	877.872540	-165.198029	385.157760	777.092984	-23.221547	367.867692	690.854699	-44.161085	310.225913	626.790232	-53.127865	392.990933	685.283994	-79.075886	252.756181	522.993002	-66.461271	269.583220	547.390366	-151.994945	173.308088	488.615263	-109.983011	471.990733	503.575170	-106.417080	384.794455	465.610712	-39.888364	115.963926	921.780533	-423.359671	163.037547	848.020310	-417.166435	189.487403	860.142818	-434.846357	165.458210	759.187906	-414.150524	189.740256	634.068972	-386.956950	177.604984	611.597728	-286.746870	36.671447	241.681102	-395.862647	77.749768	274.282719	-323.805052	-30.489707	203.830658	-355.183156	181.898649	179.827421	-417.108444	167.103418	528.357230	-434.465912	128.711802	431.628568	-398.546835	79.702352	358.907029	-404.484784	146.961412	428.793284	-364.784482	257.821266	222.246417	-348.334641	-192.813677	918.151562	-236.844299	10.815915	80.102342	-425.062223	9.399948	80.227276	-26.850757	
2	0.0100	546.870638	1363.165404	-66.013165	542.492064	1375.146497	-416.058839	534.835459	1426.303235	-243.181163	509.700652	1272.053572	-232.345945	605.295298	1115.339051	5.388374	802.661052	891.032213	-71.566336	653.068795	1139.728435	-446.690170	814.593347	890.108640	-405.330745	-13.912913	1196.533578	-241.999775	158.322415	1163.447700	-381.202627	145.696009	1199.511769	-75.974546	205.957117	1118.053043	-366.383226	160.040752	1141.513566	-106.225101	17.666340	1238.937467	-191.760526	25.023688	1233.505588	-287.085991	60.106322	1109.956334	-29.090992	74.295527	1053.415049	-412.560355	203.451652	1023.728749	-25.916744	290.892458	1009.214091	-26.477807	357.450927	952.137893	-29.505744	305.290785	1041.001573	-40.589298	457.468945	884.169768	-50.699486	443.515165	874.457012	-158.138099	385.252664	776.166421	-23.297816	368.287493	689.815317	-44.217355	310.952701	625.473787	-53.218356	394.063966	683.778591	-77.081694	253.942435	521.469417	-66.480012	270.658076	545.887688	-152.017392	174.437861	486.933884	-109.883597	473.256573	502.829350	-106.463841	386.216185	464.588207	-39.886277	115.812015	921.553037	-423.291959	162.747789	847.713277	-416.952095	189.192410	859.732955	-434.622379	165.035250	758.878306	-413.975365	189.027750	633.668129	-386.742449	176.756225	611.272326	-286.594341	34.698312	241.721237	-395.690948	75.597452	274.464116	-323.692355	-32.448133	203.476507	-355.102782	180.076224	181.080229	-417.139508	166.062127	528.006343	-434.317634	127.294213	431.363841	-398.350693	77.997748	358.745457	-404.311384	145.521470	428.455677	-364.546198	255.705330	224.010684	-348.307477	-192.826221	918.143687	-236.867781	10.819766	80.053908	-425.040195	9.379165	80.277811	-26.841349	
3	0.0150	546.965666	1362.990240	-66.696419	545.571011	1376.411003	-423.183774	535.164963	1426.412805	-243.171888	509.854973	1272.054629	-232.304659	606.206545	1115.159371	7.208817	802.706107	891.024422	-71.579076	652.027915	1140.733344	-450.558958	814.623121	890.098657	-405.358451	-13.826281	1196.560848	-242.149155	159.048492	1164.991968	-386.759685	145.750291	1199.682642	-76.148906	206.058293	1117.805569	-366.434612	160.103036	1141.504754	-106.274678	17.608879	1238.926469	-192.135236	25.160164	1233.459454	-287.255909	59.981265	1109.941956	-29.336406	74.692887	1053.088898	-411.577961	203.396673	1023.373491	-25.998769	290.910308	1009.023971	-26.764922	357.216383	951.348552	-29.922150	306.176065	1040.234809	-39.490257	457.249382	883.508867	-51.743020	442.378108	876.358323	-165.407471	385.441712	775.242308	-23.450752	367.096147	688.944520	-46.605551	311.561153	624.097378	-53.825544	393.920008	683.479400	-80.183623	254.936430	519.935875	-66.305519	271.153318	545.056072	-151.715694	175.595608	485.120695	-109.819751	474.430054	502.064420	-106.484186	387.547532	463.510757	-39.951903	116.582519	923.562938	-427.597813	162.551424	847.347539	-416.604123	191.170005	858.813920	-425.497726	164.985194	758.395253	-412.811810	188.551118	633.167186	-386.388275	175.566504	612.087030	-290.045673	33.246801	240.806713	-394.097467	53.910278	263.252526	-310.079110	-34.382469	203.133753	-355.049776	177.524330	184.122652	-419.852726	148.694515	523.682200	-433.561552	125.388009	432.700110	-401.111588	75.784945	359.611856	-405.722013	143.803368	429.566269	-367.054257	252.796304	226.860158	-349.856445	-188.097149	918.158640	-232.498185	10.851144	80.076973	-425.059484	9.269953	79.783457	-27.635421	
